<?xml version="1.0" encoding="UTF-8" standalone="no"?>
<svg
   xmlns:sketchjs="https://sketch.io/dtd/"
   xmlns:dc="http://purl.org/dc/elements/1.1/"
   xmlns:cc="http://creativecommons.org/ns#"
   xmlns:rdf="http://www.w3.org/1999/02/22-rdf-syntax-ns#"
   xmlns:svg="http://www.w3.org/2000/svg"
   xmlns="http://www.w3.org/2000/svg"
   xmlns:sodipodi="http://sodipodi.sourceforge.net/DTD/sodipodi-0.dtd"
   xmlns:inkscape="http://www.inkscape.org/namespaces/inkscape"
   width="148.96992mm"
   height="66.479271mm"
   viewBox="0 0 148.96992 66.479271"
   version="1.1"
   id="svg8"
   inkscape:version="1.0.2 (e86c870879, 2021-01-15, custom)"
   sodipodi:docname="RainLisp-Colored-POC.svg"
   inkscape:export-filename="C:\Users\gc3ad\Desktop\RainLisp-Colored.png"
   inkscape:export-xdpi="96"
   inkscape:export-ydpi="96">
  <defs
     id="defs2">
    <inkscape:perspective
       sodipodi:type="inkscape:persp3d"
       inkscape:vp_x="0 : 33.239635 : 1"
       inkscape:vp_y="0 : 1000 : 0"
       inkscape:vp_z="148.96992 : 33.239635 : 1"
       inkscape:persp3d-origin="74.48496 : 22.159757 : 1"
       id="perspective1576" />
    <filter
       inkscape:collect="always"
       style="color-interpolation-filters:sRGB"
       id="filter14712"
       x="-1.6199995e-05"
       width="1.0000324"
       y="-8.1000015e-06"
       height="1.0000162">
      <feGaussianBlur
         inkscape:collect="always"
         stdDeviation="8.036426e-05"
         id="feGaussianBlur14714" />
    </filter>
  </defs>
  <sodipodi:namedview
     id="base"
     pagecolor="#ffffff"
     bordercolor="#666666"
     borderopacity="1.0"
     inkscape:pageopacity="0.0"
     inkscape:pageshadow="2"
     inkscape:zoom="1.3556054"
     inkscape:cx="296.73274"
     inkscape:cy="108.35769"
     inkscape:document-units="mm"
     inkscape:current-layer="g5009"
     showgrid="false"
     inkscape:window-width="1920"
     inkscape:window-height="1017"
     inkscape:window-x="-8"
     inkscape:window-y="-8"
     inkscape:window-maximized="1"
     inkscape:document-rotation="0" />
  <metadata
     id="metadata5">
    <rdf:RDF>
      <cc:Work
         rdf:about="">
        <dc:format>image/svg+xml</dc:format>
        <dc:type
           rdf:resource="http://purl.org/dc/dcmitype/StillImage" />
        <dc:title />
      </cc:Work>
    </rdf:RDF>
  </metadata>
  <g
     inkscape:label="Layer 1"
     inkscape:groupmode="layer"
     id="layer1"
     style="display:inline"
     transform="translate(-30.515039,-115.26036)">
    <g
       id="g5009"
       style="display:inline">
      <g
         id="g861">
        <path
           d="m 138.01683,162.07343 h 1.4815 q 0,6.50211 -2.13994,9.4651 -2.09878,2.96298 -5.26753,2.96298 -2.59261,0 -4.97946,-1.93417 -2.38685,-1.97532 -4.27987,-10.49391 l -3.53912,-15.9672 -12.26347,27.81915 H 99.251101 L 116.86441,135.9827 q -1.39919,-7.36632 -3.37452,-10.90544 -1.97532,-3.53912 -4.89715,-3.53912 -2.3457,0 -4.11526,1.81071 -1.72841,1.76956 -1.93417,5.51445 h -1.4815 q 0.12346,-6.04943 2.42801,-9.67086 2.30454,-3.66258 5.76136,-3.66258 2.22224,0 4.19756,1.85187 2.01648,1.81071 3.45682,6.25519 1.48149,4.40333 4.56794,18.3129 l 2.92183,13.04537 q 1.76956,8.10706 3.70373,10.86428 1.97533,2.71607 4.6914,2.71607 4.60908,0 5.22637,-6.50211 z"
           style="font-style:normal;font-variant:normal;font-weight:normal;font-stretch:normal;font-size:192px;line-height:1.25;font-family:'Times New Roman';-inkscape-font-specification:'Times New Roman, Italic';letter-spacing:0px;word-spacing:0px;display:inline;fill:#008080;fill-opacity:1;stroke:#515151;stroke-width:0.539;stroke-miterlimit:4;stroke-dasharray:none;stroke-opacity:1"
           id="path26"
           inkscape:connector-curvature="0" />
        <g
           id="g944"
           style="opacity:0.999;fill:#f2f2f2;fill-opacity:1;stroke:#515151;stroke-opacity:1">
          <path
             d="m 46.253018,173.92538 -3.737927,-11.35159 q -1.309139,0.0172 -2.687178,-0.25838 l -2.015379,7.06244 q -0.396184,1.37804 -0.396184,2.32544 0,0.72347 0.499537,1.13688 0.378959,0.31006 2.067058,0.44787 l -0.155032,0.63734 H 30.78454 l 0.18948,-0.63734 q 1.274685,-0.0517 1.722547,-0.25839 0.706245,-0.29283 1.033529,-0.79237 0.551215,-0.80959 1.154107,-2.85943 l 4.082438,-14.10766 q 0.413413,-1.41249 0.413413,-2.18764 0,-0.79237 -0.654569,-1.34359 -0.637345,-0.55121 -1.843127,-0.53399 l 0.206707,-0.63734 h 7.613658 q 3.824056,0 5.512154,1.44694 1.688099,1.44694 1.688099,3.80683 0,2.25654 -1.739773,4.13412 -1.722548,1.86035 -4.737007,2.35989 l 2.27376,6.83851 q 0.826823,2.51492 1.653649,3.27284 0.826823,0.75792 2.669949,0.86128 l -0.189482,0.63734 z m -6.13227,-12.59182 q 1.102428,0.15502 1.963705,0.15502 2.962779,0 4.685328,-1.63642 1.722548,-1.65364 1.722548,-4.09966 0,-1.91203 -1.085203,-2.92833 -1.067979,-1.01631 -3.221166,-1.01631 -0.551216,0 -1.309135,0.13781 z"
             style="font-style:normal;font-weight:normal;font-size:80.3666px;line-height:1.25;font-family:sans-serif;letter-spacing:0px;word-spacing:0px;display:inline;fill:#f2f2f2;fill-opacity:1;stroke:#515151;stroke-width:0.539;stroke-miterlimit:4;stroke-dasharray:none;stroke-opacity:1"
             id="path18"
             inkscape:connector-curvature="0" />
          <path
             d="m 69.714117,158.33632 -3.358968,11.67887 -0.37896,1.56752 q -0.05167,0.22393 -0.05167,0.37896 0,0.27561 0.172252,0.48232 0.137803,0.15503 0.34451,0.15503 0.223932,0 0.585666,-0.27561 0.671795,-0.49954 1.791452,-2.06706 l 0.585666,0.41341 q -1.188561,1.79145 -2.446022,2.73885 -1.257456,0.93018 -2.325439,0.93018 -0.740694,0 -1.119653,-0.37896 -0.361734,-0.36174 -0.361734,-1.06798 0,-0.84405 0.378959,-2.22209 l 0.361734,-1.29191 q -2.256535,2.94556 -4.15134,4.11689 -1.360814,0.84405 -2.669949,0.84405 -1.257461,0 -2.170412,-1.03353 -0.912946,-1.05075 -0.912946,-2.87665 0,-2.73886 1.63642,-5.77054 1.653644,-3.04891 4.18579,-4.87481 1.98093,-1.44694 3.737928,-1.44694 1.050754,0 1.739773,0.55122 0.706244,0.55121 1.067979,1.8259 l 0.62012,-1.96371 z m -6.132271,0.89573 q -1.102428,0 -2.342664,1.03352 -1.756998,1.46417 -3.135036,4.34083 -1.360814,2.87665 -1.360814,5.20209 0,1.17133 0.585666,1.86035 0.585666,0.6718 1.343589,0.6718 1.877576,0 4.082437,-2.77331 2.945559,-3.68625 2.945559,-7.56198 0,-1.46417 -0.568441,-2.11874 -0.568441,-0.65456 -1.550296,-0.65456 z"
             style="font-style:normal;font-weight:normal;font-size:80.3666px;line-height:1.25;font-family:sans-serif;letter-spacing:0px;word-spacing:0px;fill:#f2f2f2;fill-opacity:1;stroke:#515151;stroke-width:0.539;stroke-miterlimit:4;stroke-dasharray:none;stroke-opacity:1"
             id="path20"
             inkscape:connector-curvature="0" />
          <path
             d="m 78.688593,151.49781 q 0.723469,0 1.223006,0.49954 0.499538,0.49953 0.499538,1.22301 0,0.70624 -0.516763,1.223 -0.499537,0.49954 -1.205781,0.49954 -0.706244,0 -1.223011,-0.49954 -0.499537,-0.51676 -0.499537,-1.223 0,-0.72348 0.499537,-1.22301 0.499537,-0.49954 1.223011,-0.49954 z m 0.223931,6.83851 -3.410647,12.07506 q -0.344509,1.22301 -0.344509,1.46417 0,0.2756 0.155032,0.44786 0.172253,0.17225 0.396184,0.17225 0.258381,0 0.620116,-0.2756 0.981854,-0.77515 1.980929,-2.20487 l 0.602895,0.39619 q -1.171336,1.79145 -2.756077,3.01446 -1.171332,0.91295 -2.239315,0.91295 -0.706244,0 -1.154103,-0.41341 -0.447863,-0.43064 -0.447863,-1.06798 0,-0.63734 0.430634,-2.11873 l 2.239315,-7.71702 q 0.551212,-1.8948 0.551212,-2.37711 0,-0.37897 -0.275606,-0.62012 -0.258381,-0.24116 -0.723469,-0.24116 -0.378959,0 -1.567521,0.18948 v -0.67179 z"
             style="font-style:normal;font-weight:normal;font-size:80.3666px;line-height:1.25;font-family:sans-serif;letter-spacing:0px;word-spacing:0px;display:inline;fill:#f2f2f2;fill-opacity:1;stroke:#515151;stroke-width:0.539;stroke-miterlimit:4;stroke-dasharray:none;stroke-opacity:1"
             id="path22"
             inkscape:connector-curvature="0" />
          <path
             d="m 88.369309,158.33632 -2.29099,7.83759 q 3.221165,-4.8059 4.926489,-6.32175 1.722544,-1.51584 3.307289,-1.51584 0.861277,0 1.412489,0.56844 0.568441,0.56844 0.568441,1.48139 0,1.03353 -0.499538,2.75608 l -2.101507,7.25193 q -0.361735,1.25746 -0.361735,1.53306 0,0.24116 0.137803,0.41342 0.137803,0.15502 0.292831,0.15502 0.206707,0 0.499542,-0.22393 0.912951,-0.72347 1.998154,-2.20486 l 0.533992,0.32729 q -1.601971,2.29099 -3.031688,3.27284 -0.999075,0.67179 -1.791448,0.67179 -0.637345,0 -1.016304,-0.39619 -0.378959,-0.37896 -0.378959,-1.03353 0,-0.82682 0.585666,-2.8422 l 1.998154,-6.92464 q 0.378959,-1.29191 0.378959,-2.01538 0,-0.34451 -0.223927,-0.55122 -0.223931,-0.22393 -0.551216,-0.22393 -0.482313,0 -1.154107,0.41341 -1.274686,0.77515 -2.652724,2.5666 -1.378039,1.77422 -2.911105,4.54753 -0.809598,1.46416 -1.343589,3.20394 l -0.861272,2.8422 h -2.583821 l 3.135037,-10.78315 q 0.551212,-1.94648 0.551212,-2.34267 0,-0.37895 -0.310056,-0.65457 -0.292835,-0.29283 -0.740698,-0.29283 -0.206707,0 -0.723469,0.0689 l -0.65457,0.10336 -0.103348,-0.62012 z"
             style="font-style:normal;font-weight:normal;font-size:80.3666px;line-height:1.25;font-family:sans-serif;letter-spacing:0px;word-spacing:0px;display:inline;fill:#f2f2f2;fill-opacity:1;stroke:#515151;stroke-width:0.539;stroke-miterlimit:4;stroke-dasharray:none;stroke-opacity:1"
             id="path24"
             inkscape:connector-curvature="0" />
          <path
             d="m 146.93492,151.49781 q 0.72347,0 1.223,0.49954 0.49954,0.49953 0.49954,1.22301 0,0.70624 -0.51676,1.223 -0.49954,0.49954 -1.20578,0.49954 -0.70625,0 -1.22301,-0.49954 -0.49954,-0.51676 -0.49954,-1.223 0,-0.72348 0.49954,-1.22301 0.49953,-0.49954 1.22301,-0.49954 z m 0.22393,6.83851 -3.41065,12.07506 q -0.34451,1.22301 -0.34451,1.46417 0,0.2756 0.15503,0.44786 0.17226,0.17225 0.39619,0.17225 0.25838,0 0.62011,-0.2756 0.98186,-0.77515 1.98093,-2.20487 l 0.6029,0.39619 q -1.17134,1.79145 -2.75608,3.01446 -1.17133,0.91295 -2.23931,0.91295 -0.70625,0 -1.15411,-0.41341 -0.44786,-0.43064 -0.44786,-1.06798 0,-0.63734 0.43063,-2.11873 l 2.23932,-7.71702 q 0.55121,-1.8948 0.55121,-2.37711 0,-0.37897 -0.27561,-0.62012 -0.25838,-0.24116 -0.72346,-0.24116 -0.37896,0 -1.56753,0.18948 v -0.67179 z"
             style="font-style:normal;font-weight:normal;font-size:80.3666px;line-height:1.25;font-family:sans-serif;letter-spacing:0px;word-spacing:0px;fill:#f2f2f2;fill-opacity:1;stroke:#515151;stroke-width:0.539;stroke-miterlimit:4;stroke-dasharray:none;stroke-opacity:1"
             id="path28"
             inkscape:connector-curvature="0" />
          <path
             d="m 161.62824,158.33632 -1.05075,5.28822 h -0.63734 q -0.0861,-2.30821 -0.98186,-3.35897 -0.89572,-1.05075 -2.22208,-1.05075 -1.06798,0 -1.70533,0.58567 -0.62011,0.58566 -0.62011,1.41249 0,0.56843 0.24115,1.0852 0.25838,0.51676 1.10244,1.44694 2.23931,2.44602 2.89388,3.68625 0.65456,1.24024 0.65456,2.34267 0,1.79145 -1.49862,3.18671 -1.48138,1.37804 -3.75515,1.37804 -1.24023,0 -2.85943,-0.58567 -0.56844,-0.2067 -0.8785,-0.2067 -0.77514,0 -1.17133,0.79237 h -0.63734 l 1.05075,-5.58105 h 0.63735 q 0.10335,2.61827 1.0852,3.70347 0.98185,1.08521 2.68717,1.08521 1.30914,0 2.06706,-0.72347 0.77515,-0.7407 0.77515,-1.80868 0,-0.68902 -0.27561,-1.27468 -0.48231,-1.03353 -2.0326,-2.85943 -1.53307,-1.8259 -1.98093,-2.73885 -0.43064,-0.91295 -0.43064,-1.8259 0,-1.67087 1.20578,-2.82498 1.22301,-1.15411 3.13504,-1.15411 0.55121,0 0.99908,0.0861 0.24115,0.0517 1.11965,0.39619 0.89573,0.32728 1.18856,0.32728 0.74069,0 1.24024,-0.8096 z"
             style="font-style:normal;font-weight:normal;font-size:80.3666px;line-height:1.25;font-family:sans-serif;letter-spacing:0px;word-spacing:0px;fill:#f2f2f2;fill-opacity:1;stroke:#515151;stroke-width:0.539;stroke-miterlimit:4;stroke-dasharray:none;stroke-opacity:1"
             id="path30"
             inkscape:connector-curvature="0" />
          <path
             d="m 170.34434,158.33632 -1.18856,3.96186 q 1.87758,-2.20486 3.34175,-3.08336 1.48138,-0.8785 3.01446,-0.8785 1.53306,0 2.61827,1.22301 1.0852,1.20578 1.0852,3.15226 0,3.78961 -3.08336,7.71702 -3.08336,3.91018 -7.18302,3.91018 -0.86128,0 -1.53307,-0.18948 -0.65457,-0.18948 -1.48139,-0.6718 l -1.25746,4.44418 q -0.37896,1.30914 -0.37896,1.70532 0,0.37896 0.18948,0.63734 0.2067,0.27561 0.65457,0.41341 0.44786,0.15504 1.77422,0.15504 l -0.15503,0.63734 h -8.1132 l 0.17226,-0.63734 q 1.60196,-0.0689 2.1704,-0.55122 0.55122,-0.48231 1.17134,-2.66995 l 4.35804,-15.08952 q 0.39619,-1.42971 0.39619,-1.77422 0,-0.46509 -0.27561,-0.72347 -0.25838,-0.25838 -0.8096,-0.25838 -0.49953,0 -1.39526,0.12057 v -0.67179 z m -4.01354,13.78038 q 1.06799,1.27469 2.87666,1.27469 0.89572,0 1.8259,-0.49954 0.93018,-0.49954 1.80867,-1.48139 0.89573,-0.98185 1.60197,-2.25654 0.70625,-1.29191 1.25746,-3.03168 0.56844,-1.73978 0.56844,-3.4451 0,-1.37804 -0.63734,-2.10151 -0.62012,-0.74069 -1.46416,-0.74069 -1.86036,0 -3.68626,2.13596 -1.80867,2.13596 -2.65272,4.99538 z"
             style="font-style:normal;font-weight:normal;font-size:80.3666px;line-height:1.25;font-family:sans-serif;letter-spacing:0px;word-spacing:0px;fill:#f2f2f2;fill-opacity:1;stroke:#515151;stroke-width:0.539;stroke-miterlimit:4;stroke-dasharray:none;stroke-opacity:1"
             id="path32"
             inkscape:connector-curvature="0" />
        </g>
        <path
           style="fill:#ffff00;stroke:#ff7f2a;stroke-width:0.765;stroke-linecap:butt;stroke-linejoin:miter;stroke-miterlimit:4;stroke-dasharray:none;stroke-opacity:1;filter:url(#filter14712)"
           d="m 174.78742,79.900649 -5.27518,10.051925 2.32865,5.725993 -8.40207,16.070393 12.10504,-16.590669 -2.13078,-5.498185 6.25512,-8.067523 z"
           id="path14702"
           sodipodi:nodetypes="cccccccc"
           transform="matrix(0.96602511,-0.23049928,0.08917005,0.37371268,-111.92462,152.77505)" />
        <g
           style="display:inline"
           sketchjs:tool="clipart"
           transform="matrix(0.15617926,0,0,0.04167533,45.04542,129.07126)"
           id="g4522">
          <path
             inkscape:connector-curvature="0"
             d="M 455.53,5 C 401.04,5.37 347.29,30.142 328.62,75.094 237.37,-46.086 36.67,67.639 94.91,188.914 c -138.11,-25.64 -106.39,197.57 22.47,175.81 55.32,57.59 140.17,67.01 232,26.28 h 0.06 c 111.01,40.42 207.56,10.29 251.09,-20.56 261.28,68.17 167.31,-349.25 -4.15,-240.35 C 595.04,43.367 524.69,4.534 455.53,5.004 Z"
             sketchjs:uid="1"
             style="display:inline;fill:#f2f2f2"
             id="path4518" />
          <path
             inkscape:connector-curvature="0"
             d="m 328.62,75.09 c 44.244,-106.55 285.63,-99.7 266.72,76.688 m 1.038,-21.692 c 171.46,-108.91 265.44,308.51 4.154,240.33 m 16.534,-14.423 c -31.756,36.108 -153.17,87.922 -292.21,24.984 m 24.506,10.003 c -91.82,40.73 -176.65,31.33 -231.98,-26.26 m 23.893,-6.545 c -148.4,55.62 -192.67,-196.43 -46.38,-169.27 m 12.562,20.78 c -99.64,-135.93 151.77,-278.65 236.96,-108.95"
             sketchjs:uid="2"
             style="display:inline;fill:none;stroke:#515151;stroke-width:10;stroke-linecap:round;stroke-linejoin:round"
             id="path4520" />
        </g>
      </g>
    </g>
  </g>
  <script
     id="mesh_polyfill"
     type="text/javascript">
!function(){const t=&quot;http://www.w3.org/2000/svg&quot;,e=&quot;http://www.w3.org/1999/xlink&quot;,s=&quot;http://www.w3.org/1999/xhtml&quot;,r=2;if(document.createElementNS(t,&quot;meshgradient&quot;).x)return;const n=(t,e,s,r)=&gt;{let n=new x(.5*(e.x+s.x),.5*(e.y+s.y)),o=new x(.5*(t.x+e.x),.5*(t.y+e.y)),i=new x(.5*(s.x+r.x),.5*(s.y+r.y)),a=new x(.5*(n.x+o.x),.5*(n.y+o.y)),h=new x(.5*(n.x+i.x),.5*(n.y+i.y)),l=new x(.5*(a.x+h.x),.5*(a.y+h.y));return[[t,o,a,l],[l,h,i,r]]},o=t=&gt;{let e=t[0].distSquared(t[1]),s=t[2].distSquared(t[3]),r=.25*t[0].distSquared(t[2]),n=.25*t[1].distSquared(t[3]),o=e&gt;s?e:s,i=r&gt;n?r:n;return 18*(o&gt;i?o:i)},i=(t,e)=&gt;Math.sqrt(t.distSquared(e)),a=(t,e)=&gt;t.scale(2/3).add(e.scale(1/3)),h=t=&gt;{let e,s,r,n,o,i,a,h=new g;return t.match(/(\w+\(\s*[^)]+\))+/g).forEach(t=&gt;{let l=t.match(/[\w.-]+/g),d=l.shift();switch(d){case&quot;translate&quot;:2===l.length?e=new g(1,0,0,1,l[0],l[1]):(console.error(&quot;mesh.js: translate does not have 2 arguments!&quot;),e=new g(1,0,0,1,0,0)),h=h.append(e);break;case&quot;scale&quot;:1===l.length?s=new g(l[0],0,0,l[0],0,0):2===l.length?s=new g(l[0],0,0,l[1],0,0):(console.error(&quot;mesh.js: scale does not have 1 or 2 arguments!&quot;),s=new g(1,0,0,1,0,0)),h=h.append(s);break;case&quot;rotate&quot;:if(3===l.length&amp;&amp;(e=new g(1,0,0,1,l[1],l[2]),h=h.append(e)),l[0]){r=l[0]*Math.PI/180;let t=Math.cos(r),e=Math.sin(r);Math.abs(t)&lt;1e-16&amp;&amp;(t=0),Math.abs(e)&lt;1e-16&amp;&amp;(e=0),a=new g(t,e,-e,t,0,0),h=h.append(a)}else console.error(&quot;math.js: No argument to rotate transform!&quot;);3===l.length&amp;&amp;(e=new g(1,0,0,1,-l[1],-l[2]),h=h.append(e));break;case&quot;skewX&quot;:l[0]?(r=l[0]*Math.PI/180,n=Math.tan(r),o=new g(1,0,n,1,0,0),h=h.append(o)):console.error(&quot;math.js: No argument to skewX transform!&quot;);break;case&quot;skewY&quot;:l[0]?(r=l[0]*Math.PI/180,n=Math.tan(r),i=new g(1,n,0,1,0,0),h=h.append(i)):console.error(&quot;math.js: No argument to skewY transform!&quot;);break;case&quot;matrix&quot;:6===l.length?h=h.append(new g(...l)):console.error(&quot;math.js: Incorrect number of arguments for matrix!&quot;);break;default:console.error(&quot;mesh.js: Unhandled transform type: &quot;+d)}}),h},l=t=&gt;{let e=[],s=t.split(/[ ,]+/);for(let t=0,r=s.length-1;t&lt;r;t+=2)e.push(new x(parseFloat(s[t]),parseFloat(s[t+1])));return e},d=(t,e)=&gt;{for(let s in e)t.setAttribute(s,e[s])},c=(t,e,s,r,n)=&gt;{let o,i,a=[0,0,0,0];for(let h=0;h&lt;3;++h)e[h]&lt;t[h]&amp;&amp;e[h]&lt;s[h]||t[h]&lt;e[h]&amp;&amp;s[h]&lt;e[h]?a[h]=0:(a[h]=.5*((e[h]-t[h])/r+(s[h]-e[h])/n),o=Math.abs(3*(e[h]-t[h])/r),i=Math.abs(3*(s[h]-e[h])/n),a[h]&gt;o?a[h]=o:a[h]&gt;i&amp;&amp;(a[h]=i));return a},u=[[1,0,0,0,0,0,0,0,0,0,0,0,0,0,0,0],[0,0,0,0,1,0,0,0,0,0,0,0,0,0,0,0],[-3,3,0,0,-2,-1,0,0,0,0,0,0,0,0,0,0],[2,-2,0,0,1,1,0,0,0,0,0,0,0,0,0,0],[0,0,0,0,0,0,0,0,1,0,0,0,0,0,0,0],[0,0,0,0,0,0,0,0,0,0,0,0,1,0,0,0],[0,0,0,0,0,0,0,0,-3,3,0,0,-2,-1,0,0],[0,0,0,0,0,0,0,0,2,-2,0,0,1,1,0,0],[-3,0,3,0,0,0,0,0,-2,0,-1,0,0,0,0,0],[0,0,0,0,-3,0,3,0,0,0,0,0,-2,0,-1,0],[9,-9,-9,9,6,3,-6,-3,6,-6,3,-3,4,2,2,1],[-6,6,6,-6,-3,-3,3,3,-4,4,-2,2,-2,-2,-1,-1],[2,0,-2,0,0,0,0,0,1,0,1,0,0,0,0,0],[0,0,0,0,2,0,-2,0,0,0,0,0,1,0,1,0],[-6,6,6,-6,-4,-2,4,2,-3,3,-3,3,-2,-1,-2,-1],[4,-4,-4,4,2,2,-2,-2,2,-2,2,-2,1,1,1,1]],f=t=&gt;{let e=[];for(let s=0;s&lt;16;++s){e[s]=0;for(let r=0;r&lt;16;++r)e[s]+=u[s][r]*t[r]}return e},p=(t,e,s)=&gt;{const r=e*e,n=s*s,o=e*e*e,i=s*s*s;return t[0]+t[1]*e+t[2]*r+t[3]*o+t[4]*s+t[5]*s*e+t[6]*s*r+t[7]*s*o+t[8]*n+t[9]*n*e+t[10]*n*r+t[11]*n*o+t[12]*i+t[13]*i*e+t[14]*i*r+t[15]*i*o},y=t=&gt;{let e=[],s=[],r=[];for(let s=0;s&lt;4;++s)e[s]=[],e[s][0]=n(t[0][s],t[1][s],t[2][s],t[3][s]),e[s][1]=[],e[s][1].push(...n(...e[s][0][0])),e[s][1].push(...n(...e[s][0][1])),e[s][2]=[],e[s][2].push(...n(...e[s][1][0])),e[s][2].push(...n(...e[s][1][1])),e[s][2].push(...n(...e[s][1][2])),e[s][2].push(...n(...e[s][1][3]));for(let t=0;t&lt;8;++t){s[t]=[];for(let r=0;r&lt;4;++r)s[t][r]=[],s[t][r][0]=n(e[0][2][t][r],e[1][2][t][r],e[2][2][t][r],e[3][2][t][r]),s[t][r][1]=[],s[t][r][1].push(...n(...s[t][r][0][0])),s[t][r][1].push(...n(...s[t][r][0][1])),s[t][r][2]=[],s[t][r][2].push(...n(...s[t][r][1][0])),s[t][r][2].push(...n(...s[t][r][1][1])),s[t][r][2].push(...n(...s[t][r][1][2])),s[t][r][2].push(...n(...s[t][r][1][3]))}for(let t=0;t&lt;8;++t){r[t]=[];for(let e=0;e&lt;8;++e)r[t][e]=[],r[t][e][0]=s[t][0][2][e],r[t][e][1]=s[t][1][2][e],r[t][e][2]=s[t][2][2][e],r[t][e][3]=s[t][3][2][e]}return r};class x{constructor(t,e){this.x=t||0,this.y=e||0}toString(){return`(x=${this.x}, y=${this.y})`}clone(){return new x(this.x,this.y)}add(t){return new x(this.x+t.x,this.y+t.y)}scale(t){return void 0===t.x?new x(this.x*t,this.y*t):new x(this.x*t.x,this.y*t.y)}distSquared(t){let e=this.x-t.x,s=this.y-t.y;return e*e+s*s}transform(t){let e=this.x*t.a+this.y*t.c+t.e,s=this.x*t.b+this.y*t.d+t.f;return new x(e,s)}}class g{constructor(t,e,s,r,n,o){void 0===t?(this.a=1,this.b=0,this.c=0,this.d=1,this.e=0,this.f=0):(this.a=t,this.b=e,this.c=s,this.d=r,this.e=n,this.f=o)}toString(){return`affine: ${this.a} ${this.c} ${this.e} \n       ${this.b} ${this.d} ${this.f}`}append(t){t instanceof g||console.error(&quot;mesh.js: argument to Affine.append is not affine!&quot;);let e=this.a*t.a+this.c*t.b,s=this.b*t.a+this.d*t.b,r=this.a*t.c+this.c*t.d,n=this.b*t.c+this.d*t.d,o=this.a*t.e+this.c*t.f+this.e,i=this.b*t.e+this.d*t.f+this.f;return new g(e,s,r,n,o,i)}}class w{constructor(t,e){this.nodes=t,this.colors=e}paintCurve(t,e){if(o(this.nodes)&gt;r){const s=n(...this.nodes);let r=[[],[]],o=[[],[]];for(let t=0;t&lt;4;++t)r[0][t]=this.colors[0][t],r[1][t]=(this.colors[0][t]+this.colors[1][t])/2,o[0][t]=r[1][t],o[1][t]=this.colors[1][t];let i=new w(s[0],r),a=new w(s[1],o);i.paintCurve(t,e),a.paintCurve(t,e)}else{let s=Math.round(this.nodes[0].x);if(s&gt;=0&amp;&amp;s&lt;e){let r=4*(~~this.nodes[0].y*e+s);t[r]=Math.round(this.colors[0][0]),t[r+1]=Math.round(this.colors[0][1]),t[r+2]=Math.round(this.colors[0][2]),t[r+3]=Math.round(this.colors[0][3])}}}}class m{constructor(t,e){this.nodes=t,this.colors=e}split(){let t=[[],[],[],[]],e=[[],[],[],[]],s=[[[],[]],[[],[]]],r=[[[],[]],[[],[]]];for(let s=0;s&lt;4;++s){const r=n(this.nodes[0][s],this.nodes[1][s],this.nodes[2][s],this.nodes[3][s]);t[0][s]=r[0][0],t[1][s]=r[0][1],t[2][s]=r[0][2],t[3][s]=r[0][3],e[0][s]=r[1][0],e[1][s]=r[1][1],e[2][s]=r[1][2],e[3][s]=r[1][3]}for(let t=0;t&lt;4;++t)s[0][0][t]=this.colors[0][0][t],s[0][1][t]=this.colors[0][1][t],s[1][0][t]=(this.colors[0][0][t]+this.colors[1][0][t])/2,s[1][1][t]=(this.colors[0][1][t]+this.colors[1][1][t])/2,r[0][0][t]=s[1][0][t],r[0][1][t]=s[1][1][t],r[1][0][t]=this.colors[1][0][t],r[1][1][t]=this.colors[1][1][t];return[new m(t,s),new m(e,r)]}paint(t,e){let s,n=!1;for(let t=0;t&lt;4;++t)if((s=o([this.nodes[0][t],this.nodes[1][t],this.nodes[2][t],this.nodes[3][t]]))&gt;r){n=!0;break}if(n){let s=this.split();s[0].paint(t,e),s[1].paint(t,e)}else{new w([...this.nodes[0]],[...this.colors[0]]).paintCurve(t,e)}}}class b{constructor(t){this.readMesh(t),this.type=t.getAttribute(&quot;type&quot;)||&quot;bilinear&quot;}readMesh(t){let e=[[]],s=[[]],r=Number(t.getAttribute(&quot;x&quot;)),n=Number(t.getAttribute(&quot;y&quot;));e[0][0]=new x(r,n);let o=t.children;for(let t=0,r=o.length;t&lt;r;++t){e[3*t+1]=[],e[3*t+2]=[],e[3*t+3]=[],s[t+1]=[];let r=o[t].children;for(let n=0,o=r.length;n&lt;o;++n){let o=r[n].children;for(let r=0,i=o.length;r&lt;i;++r){let i=r;0!==t&amp;&amp;++i;let h,d=o[r].getAttribute(&quot;path&quot;),c=&quot;l&quot;;null!=d&amp;&amp;(c=(h=d.match(/\s*([lLcC])\s*(.*)/))[1]);let u=l(h[2]);switch(c){case&quot;l&quot;:0===i?(e[3*t][3*n+3]=u[0].add(e[3*t][3*n]),e[3*t][3*n+1]=a(e[3*t][3*n],e[3*t][3*n+3]),e[3*t][3*n+2]=a(e[3*t][3*n+3],e[3*t][3*n])):1===i?(e[3*t+3][3*n+3]=u[0].add(e[3*t][3*n+3]),e[3*t+1][3*n+3]=a(e[3*t][3*n+3],e[3*t+3][3*n+3]),e[3*t+2][3*n+3]=a(e[3*t+3][3*n+3],e[3*t][3*n+3])):2===i?(0===n&amp;&amp;(e[3*t+3][3*n+0]=u[0].add(e[3*t+3][3*n+3])),e[3*t+3][3*n+1]=a(e[3*t+3][3*n],e[3*t+3][3*n+3]),e[3*t+3][3*n+2]=a(e[3*t+3][3*n+3],e[3*t+3][3*n])):(e[3*t+1][3*n]=a(e[3*t][3*n],e[3*t+3][3*n]),e[3*t+2][3*n]=a(e[3*t+3][3*n],e[3*t][3*n]));break;case&quot;L&quot;:0===i?(e[3*t][3*n+3]=u[0],e[3*t][3*n+1]=a(e[3*t][3*n],e[3*t][3*n+3]),e[3*t][3*n+2]=a(e[3*t][3*n+3],e[3*t][3*n])):1===i?(e[3*t+3][3*n+3]=u[0],e[3*t+1][3*n+3]=a(e[3*t][3*n+3],e[3*t+3][3*n+3]),e[3*t+2][3*n+3]=a(e[3*t+3][3*n+3],e[3*t][3*n+3])):2===i?(0===n&amp;&amp;(e[3*t+3][3*n+0]=u[0]),e[3*t+3][3*n+1]=a(e[3*t+3][3*n],e[3*t+3][3*n+3]),e[3*t+3][3*n+2]=a(e[3*t+3][3*n+3],e[3*t+3][3*n])):(e[3*t+1][3*n]=a(e[3*t][3*n],e[3*t+3][3*n]),e[3*t+2][3*n]=a(e[3*t+3][3*n],e[3*t][3*n]));break;case&quot;c&quot;:0===i?(e[3*t][3*n+1]=u[0].add(e[3*t][3*n]),e[3*t][3*n+2]=u[1].add(e[3*t][3*n]),e[3*t][3*n+3]=u[2].add(e[3*t][3*n])):1===i?(e[3*t+1][3*n+3]=u[0].add(e[3*t][3*n+3]),e[3*t+2][3*n+3]=u[1].add(e[3*t][3*n+3]),e[3*t+3][3*n+3]=u[2].add(e[3*t][3*n+3])):2===i?(e[3*t+3][3*n+2]=u[0].add(e[3*t+3][3*n+3]),e[3*t+3][3*n+1]=u[1].add(e[3*t+3][3*n+3]),0===n&amp;&amp;(e[3*t+3][3*n+0]=u[2].add(e[3*t+3][3*n+3]))):(e[3*t+2][3*n]=u[0].add(e[3*t+3][3*n]),e[3*t+1][3*n]=u[1].add(e[3*t+3][3*n]));break;case&quot;C&quot;:0===i?(e[3*t][3*n+1]=u[0],e[3*t][3*n+2]=u[1],e[3*t][3*n+3]=u[2]):1===i?(e[3*t+1][3*n+3]=u[0],e[3*t+2][3*n+3]=u[1],e[3*t+3][3*n+3]=u[2]):2===i?(e[3*t+3][3*n+2]=u[0],e[3*t+3][3*n+1]=u[1],0===n&amp;&amp;(e[3*t+3][3*n+0]=u[2])):(e[3*t+2][3*n]=u[0],e[3*t+1][3*n]=u[1]);break;default:console.error(&quot;mesh.js: &quot;+c+&quot; invalid path type.&quot;)}if(0===t&amp;&amp;0===n||r&gt;0){let e=window.getComputedStyle(o[r]).stopColor.match(/^rgb\s*\(\s*(\d+)\s*,\s*(\d+)\s*,\s*(\d+)\s*\)$/i),a=window.getComputedStyle(o[r]).stopOpacity,h=255;a&amp;&amp;(h=Math.floor(255*a)),e&amp;&amp;(0===i?(s[t][n]=[],s[t][n][0]=Math.floor(e[1]),s[t][n][1]=Math.floor(e[2]),s[t][n][2]=Math.floor(e[3]),s[t][n][3]=h):1===i?(s[t][n+1]=[],s[t][n+1][0]=Math.floor(e[1]),s[t][n+1][1]=Math.floor(e[2]),s[t][n+1][2]=Math.floor(e[3]),s[t][n+1][3]=h):2===i?(s[t+1][n+1]=[],s[t+1][n+1][0]=Math.floor(e[1]),s[t+1][n+1][1]=Math.floor(e[2]),s[t+1][n+1][2]=Math.floor(e[3]),s[t+1][n+1][3]=h):3===i&amp;&amp;(s[t+1][n]=[],s[t+1][n][0]=Math.floor(e[1]),s[t+1][n][1]=Math.floor(e[2]),s[t+1][n][2]=Math.floor(e[3]),s[t+1][n][3]=h))}}e[3*t+1][3*n+1]=new x,e[3*t+1][3*n+2]=new x,e[3*t+2][3*n+1]=new x,e[3*t+2][3*n+2]=new x,e[3*t+1][3*n+1].x=(-4*e[3*t][3*n].x+6*(e[3*t][3*n+1].x+e[3*t+1][3*n].x)+-2*(e[3*t][3*n+3].x+e[3*t+3][3*n].x)+3*(e[3*t+3][3*n+1].x+e[3*t+1][3*n+3].x)+-1*e[3*t+3][3*n+3].x)/9,e[3*t+1][3*n+2].x=(-4*e[3*t][3*n+3].x+6*(e[3*t][3*n+2].x+e[3*t+1][3*n+3].x)+-2*(e[3*t][3*n].x+e[3*t+3][3*n+3].x)+3*(e[3*t+3][3*n+2].x+e[3*t+1][3*n].x)+-1*e[3*t+3][3*n].x)/9,e[3*t+2][3*n+1].x=(-4*e[3*t+3][3*n].x+6*(e[3*t+3][3*n+1].x+e[3*t+2][3*n].x)+-2*(e[3*t+3][3*n+3].x+e[3*t][3*n].x)+3*(e[3*t][3*n+1].x+e[3*t+2][3*n+3].x)+-1*e[3*t][3*n+3].x)/9,e[3*t+2][3*n+2].x=(-4*e[3*t+3][3*n+3].x+6*(e[3*t+3][3*n+2].x+e[3*t+2][3*n+3].x)+-2*(e[3*t+3][3*n].x+e[3*t][3*n+3].x)+3*(e[3*t][3*n+2].x+e[3*t+2][3*n].x)+-1*e[3*t][3*n].x)/9,e[3*t+1][3*n+1].y=(-4*e[3*t][3*n].y+6*(e[3*t][3*n+1].y+e[3*t+1][3*n].y)+-2*(e[3*t][3*n+3].y+e[3*t+3][3*n].y)+3*(e[3*t+3][3*n+1].y+e[3*t+1][3*n+3].y)+-1*e[3*t+3][3*n+3].y)/9,e[3*t+1][3*n+2].y=(-4*e[3*t][3*n+3].y+6*(e[3*t][3*n+2].y+e[3*t+1][3*n+3].y)+-2*(e[3*t][3*n].y+e[3*t+3][3*n+3].y)+3*(e[3*t+3][3*n+2].y+e[3*t+1][3*n].y)+-1*e[3*t+3][3*n].y)/9,e[3*t+2][3*n+1].y=(-4*e[3*t+3][3*n].y+6*(e[3*t+3][3*n+1].y+e[3*t+2][3*n].y)+-2*(e[3*t+3][3*n+3].y+e[3*t][3*n].y)+3*(e[3*t][3*n+1].y+e[3*t+2][3*n+3].y)+-1*e[3*t][3*n+3].y)/9,e[3*t+2][3*n+2].y=(-4*e[3*t+3][3*n+3].y+6*(e[3*t+3][3*n+2].y+e[3*t+2][3*n+3].y)+-2*(e[3*t+3][3*n].y+e[3*t][3*n+3].y)+3*(e[3*t][3*n+2].y+e[3*t+2][3*n].y)+-1*e[3*t][3*n].y)/9}}this.nodes=e,this.colors=s}paintMesh(t,e){let s=(this.nodes.length-1)/3,r=(this.nodes[0].length-1)/3;if(&quot;bilinear&quot;===this.type||s&lt;2||r&lt;2){let n;for(let o=0;o&lt;s;++o)for(let s=0;s&lt;r;++s){let r=[];for(let t=3*o,e=3*o+4;t&lt;e;++t)r.push(this.nodes[t].slice(3*s,3*s+4));let i=[];i.push(this.colors[o].slice(s,s+2)),i.push(this.colors[o+1].slice(s,s+2)),(n=new m(r,i)).paint(t,e)}}else{let n,o,a,h,l,d,u;const x=s,g=r;s++,r++;let w=new Array(s);for(let t=0;t&lt;s;++t){w[t]=new Array(r);for(let e=0;e&lt;r;++e)w[t][e]=[],w[t][e][0]=this.nodes[3*t][3*e],w[t][e][1]=this.colors[t][e]}for(let t=0;t&lt;s;++t)for(let e=0;e&lt;r;++e)0!==t&amp;&amp;t!==x&amp;&amp;(n=i(w[t-1][e][0],w[t][e][0]),o=i(w[t+1][e][0],w[t][e][0]),w[t][e][2]=c(w[t-1][e][1],w[t][e][1],w[t+1][e][1],n,o)),0!==e&amp;&amp;e!==g&amp;&amp;(n=i(w[t][e-1][0],w[t][e][0]),o=i(w[t][e+1][0],w[t][e][0]),w[t][e][3]=c(w[t][e-1][1],w[t][e][1],w[t][e+1][1],n,o));for(let t=0;t&lt;r;++t){w[0][t][2]=[],w[x][t][2]=[];for(let e=0;e&lt;4;++e)n=i(w[1][t][0],w[0][t][0]),o=i(w[x][t][0],w[x-1][t][0]),w[0][t][2][e]=n&gt;0?2*(w[1][t][1][e]-w[0][t][1][e])/n-w[1][t][2][e]:0,w[x][t][2][e]=o&gt;0?2*(w[x][t][1][e]-w[x-1][t][1][e])/o-w[x-1][t][2][e]:0}for(let t=0;t&lt;s;++t){w[t][0][3]=[],w[t][g][3]=[];for(let e=0;e&lt;4;++e)n=i(w[t][1][0],w[t][0][0]),o=i(w[t][g][0],w[t][g-1][0]),w[t][0][3][e]=n&gt;0?2*(w[t][1][1][e]-w[t][0][1][e])/n-w[t][1][3][e]:0,w[t][g][3][e]=o&gt;0?2*(w[t][g][1][e]-w[t][g-1][1][e])/o-w[t][g-1][3][e]:0}for(let s=0;s&lt;x;++s)for(let r=0;r&lt;g;++r){let n=i(w[s][r][0],w[s+1][r][0]),o=i(w[s][r+1][0],w[s+1][r+1][0]),c=i(w[s][r][0],w[s][r+1][0]),x=i(w[s+1][r][0],w[s+1][r+1][0]),g=[[],[],[],[]];for(let t=0;t&lt;4;++t){(d=[])[0]=w[s][r][1][t],d[1]=w[s+1][r][1][t],d[2]=w[s][r+1][1][t],d[3]=w[s+1][r+1][1][t],d[4]=w[s][r][2][t]*n,d[5]=w[s+1][r][2][t]*n,d[6]=w[s][r+1][2][t]*o,d[7]=w[s+1][r+1][2][t]*o,d[8]=w[s][r][3][t]*c,d[9]=w[s+1][r][3][t]*x,d[10]=w[s][r+1][3][t]*c,d[11]=w[s+1][r+1][3][t]*x,d[12]=0,d[13]=0,d[14]=0,d[15]=0,u=f(d);for(let e=0;e&lt;9;++e){g[t][e]=[];for(let s=0;s&lt;9;++s)g[t][e][s]=p(u,e/8,s/8),g[t][e][s]&gt;255?g[t][e][s]=255:g[t][e][s]&lt;0&amp;&amp;(g[t][e][s]=0)}}h=[];for(let t=3*s,e=3*s+4;t&lt;e;++t)h.push(this.nodes[t].slice(3*r,3*r+4));l=y(h);for(let s=0;s&lt;8;++s)for(let r=0;r&lt;8;++r)(a=new m(l[s][r],[[[g[0][s][r],g[1][s][r],g[2][s][r],g[3][s][r]],[g[0][s][r+1],g[1][s][r+1],g[2][s][r+1],g[3][s][r+1]]],[[g[0][s+1][r],g[1][s+1][r],g[2][s+1][r],g[3][s+1][r]],[g[0][s+1][r+1],g[1][s+1][r+1],g[2][s+1][r+1],g[3][s+1][r+1]]]])).paint(t,e)}}}transform(t){if(t instanceof x)for(let e=0,s=this.nodes.length;e&lt;s;++e)for(let s=0,r=this.nodes[0].length;s&lt;r;++s)this.nodes[e][s]=this.nodes[e][s].add(t);else if(t instanceof g)for(let e=0,s=this.nodes.length;e&lt;s;++e)for(let s=0,r=this.nodes[0].length;s&lt;r;++s)this.nodes[e][s]=this.nodes[e][s].transform(t)}scale(t){for(let e=0,s=this.nodes.length;e&lt;s;++e)for(let s=0,r=this.nodes[0].length;s&lt;r;++s)this.nodes[e][s]=this.nodes[e][s].scale(t)}}document.querySelectorAll(&quot;rect,circle,ellipse,path,text&quot;).forEach((r,n)=&gt;{let o=r.getAttribute(&quot;id&quot;);o||(o=&quot;patchjs_shape&quot;+n,r.setAttribute(&quot;id&quot;,o));const i=r.style.fill.match(/^url\(\s*&quot;?\s*#([^\s&quot;]+)&quot;?\s*\)/),a=r.style.stroke.match(/^url\(\s*&quot;?\s*#([^\s&quot;]+)&quot;?\s*\)/);if(i&amp;&amp;i[1]){const a=document.getElementById(i[1]);if(a&amp;&amp;&quot;meshgradient&quot;===a.nodeName){const i=r.getBBox();let l=document.createElementNS(s,&quot;canvas&quot;);d(l,{width:i.width,height:i.height});const c=l.getContext(&quot;2d&quot;);let u=c.createImageData(i.width,i.height);const f=new b(a);&quot;objectBoundingBox&quot;===a.getAttribute(&quot;gradientUnits&quot;)&amp;&amp;f.scale(new x(i.width,i.height));const p=a.getAttribute(&quot;gradientTransform&quot;);null!=p&amp;&amp;f.transform(h(p)),&quot;userSpaceOnUse&quot;===a.getAttribute(&quot;gradientUnits&quot;)&amp;&amp;f.transform(new x(-i.x,-i.y)),f.paintMesh(u.data,l.width),c.putImageData(u,0,0);const y=document.createElementNS(t,&quot;image&quot;);d(y,{width:i.width,height:i.height,x:i.x,y:i.y});let g=l.toDataURL();y.setAttributeNS(e,&quot;xlink:href&quot;,g),r.parentNode.insertBefore(y,r),r.style.fill=&quot;none&quot;;const w=document.createElementNS(t,&quot;use&quot;);w.setAttributeNS(e,&quot;xlink:href&quot;,&quot;#&quot;+o);const m=&quot;patchjs_clip&quot;+n,M=document.createElementNS(t,&quot;clipPath&quot;);M.setAttribute(&quot;id&quot;,m),M.appendChild(w),r.parentElement.insertBefore(M,r),y.setAttribute(&quot;clip-path&quot;,&quot;url(#&quot;+m+&quot;)&quot;),u=null,l=null,g=null}}if(a&amp;&amp;a[1]){const o=document.getElementById(a[1]);if(o&amp;&amp;&quot;meshgradient&quot;===o.nodeName){const i=parseFloat(r.style.strokeWidth.slice(0,-2))*(parseFloat(r.style.strokeMiterlimit)||parseFloat(r.getAttribute(&quot;stroke-miterlimit&quot;))||1),a=r.getBBox(),l=Math.trunc(a.width+i),c=Math.trunc(a.height+i),u=Math.trunc(a.x-i/2),f=Math.trunc(a.y-i/2);let p=document.createElementNS(s,&quot;canvas&quot;);d(p,{width:l,height:c});const y=p.getContext(&quot;2d&quot;);let g=y.createImageData(l,c);const w=new b(o);&quot;objectBoundingBox&quot;===o.getAttribute(&quot;gradientUnits&quot;)&amp;&amp;w.scale(new x(l,c));const m=o.getAttribute(&quot;gradientTransform&quot;);null!=m&amp;&amp;w.transform(h(m)),&quot;userSpaceOnUse&quot;===o.getAttribute(&quot;gradientUnits&quot;)&amp;&amp;w.transform(new x(-u,-f)),w.paintMesh(g.data,p.width),y.putImageData(g,0,0);const M=document.createElementNS(t,&quot;image&quot;);d(M,{width:l,height:c,x:0,y:0});let S=p.toDataURL();M.setAttributeNS(e,&quot;xlink:href&quot;,S);const k=&quot;pattern_clip&quot;+n,A=document.createElementNS(t,&quot;pattern&quot;);d(A,{id:k,patternUnits:&quot;userSpaceOnUse&quot;,width:l,height:c,x:u,y:f}),A.appendChild(M),o.parentNode.appendChild(A),r.style.stroke=&quot;url(#&quot;+k+&quot;)&quot;,g=null,p=null,S=null}}})}();
</script>
</svg>
