<?xml version="1.0" encoding="UTF-8" standalone="no"?>
<!-- Created with Inkscape (http://www.inkscape.org/) -->

<svg
   xmlns:sketchjs="https://sketch.io/dtd/"
   xmlns:dc="http://purl.org/dc/elements/1.1/"
   xmlns:cc="http://creativecommons.org/ns#"
   xmlns:rdf="http://www.w3.org/1999/02/22-rdf-syntax-ns#"
   xmlns:svg="http://www.w3.org/2000/svg"
   xmlns="http://www.w3.org/2000/svg"
   xmlns:sodipodi="http://sodipodi.sourceforge.net/DTD/sodipodi-0.dtd"
   xmlns:inkscape="http://www.inkscape.org/namespaces/inkscape"
   width="148.96992mm"
   height="66.479271mm"
   viewBox="0 0 148.96992 66.479271"
   version="1.1"
   id="svg8"
   inkscape:version="0.92.4 (5da689c313, 2019-01-14)"
   sodipodi:docname="RainLisp-Negative.svg">
  <defs
     id="defs2" />
  <sodipodi:namedview
     id="base"
     pagecolor="#ffffff"
     bordercolor="#666666"
     borderopacity="1.0"
     inkscape:pageopacity="0.0"
     inkscape:pageshadow="2"
     inkscape:zoom="0.4792789"
     inkscape:cx="-58.576294"
     inkscape:cy="125.63012"
     inkscape:document-units="mm"
     inkscape:current-layer="g5009"
     showgrid="false"
     inkscape:window-width="1366"
     inkscape:window-height="705"
     inkscape:window-x="-8"
     inkscape:window-y="-8"
     inkscape:window-maximized="1" />
  <metadata
     id="metadata5">
    <rdf:RDF>
      <cc:Work
         rdf:about="">
        <dc:format>image/svg+xml</dc:format>
        <dc:type
           rdf:resource="http://purl.org/dc/dcmitype/StillImage" />
        <dc:title />
      </cc:Work>
    </rdf:RDF>
  </metadata>
  <g
     inkscape:label="Layer 1"
     inkscape:groupmode="layer"
     id="layer1"
     style="display:inline"
     transform="translate(-30.515039,-115.26036)">
    <g
       id="g5009"
       style="display:inline">
      <g
         aria-label="Rainλisp"
         transform="matrix(0.43896088,0,0,0.43896088,-8.5390619,80.451849)"
         style="font-style:normal;font-weight:normal;font-size:40px;line-height:1.25;font-family:sans-serif;letter-spacing:0px;word-spacing:0px;display:inline;fill:none;fill-opacity:1;stroke:#000000;stroke-width:1.22789991;stroke-miterlimit:4;stroke-dasharray:none;stroke-opacity:1"
         id="flowRoot4555">
        <path
           d="m 124.82224,212.94273 -8.5154,-25.86014 q -2.98236,0.0392 -6.12168,-0.58862 l -4.59125,16.08901 q -0.90255,3.13932 -0.90255,5.2976 0,1.64814 1.138,2.58994 0.86331,0.70635 4.70898,1.02028 l -0.35318,1.45193 H 89.583385 l 0.431656,-1.45193 q 2.90387,-0.11773 3.924148,-0.58863 1.608901,-0.6671 2.35449,-1.8051 1.255727,-1.84435 2.629179,-6.51409 l 9.300232,-32.13878 q 0.9418,-3.2178 0.9418,-4.98367 0,-1.8051 -1.49118,-3.06083 -1.45194,-1.25573 -4.19884,-1.21649 l 0.4709,-1.45193 h 17.34473 q 8.71161,0 12.55728,3.29628 3.84567,3.29629 3.84567,8.67237 0,5.14064 -3.96339,9.41796 -3.92415,4.23808 -10.79141,5.37608 l 5.17987,15.57887 q 1.88359,5.72926 3.76719,7.45588 1.88359,1.72663 6.08243,1.96208 l -0.43166,1.45193 z m -13.96997,-28.68552 q 2.51145,0.35317 4.47353,0.35317 6.74953,0 10.67368,-3.72794 3.92415,-3.76718 3.92415,-9.33947 0,-4.35581 -2.47221,-6.67106 -2.43297,-2.31525 -7.33816,-2.31525 -1.25573,0 -2.98235,0.31394 z"
           style="font-size:80.36656189px;fill:none;stroke:#000000;stroke-width:1.22789991;stroke-miterlimit:4;stroke-dasharray:none;stroke-opacity:1"
           id="path18"
           inkscape:connector-curvature="0" />
        <path
           d="m 178.26914,177.42919 -7.65209,26.60572 -0.86331,3.57098 q -0.11772,0.51014 -0.11772,0.86331 0,0.62787 0.39241,1.09876 0.31393,0.35318 0.78483,0.35318 0.51014,0 1.33421,-0.62787 1.53042,-1.138 4.08112,-4.70897 l 1.33421,0.94179 q -2.70767,4.08112 -5.5723,6.2394 -2.86462,2.11904 -5.2976,2.11904 -1.68738,0 -2.55069,-0.86331 -0.82407,-0.82408 -0.82407,-2.43298 0,-1.92283 0.86331,-5.06215 l 0.82407,-2.94311 q -5.14063,6.71029 -9.4572,9.37871 -3.10008,1.92284 -6.08243,1.92284 -2.86463,0 -4.94443,-2.35449 -2.07979,-2.39373 -2.07979,-6.55333 0,-6.2394 3.72794,-13.1459 3.76718,-6.94574 9.53568,-11.10534 4.51277,-3.29628 8.5154,-3.29628 2.39373,0 3.96339,1.25573 1.6089,1.25572 2.43297,4.15959 l 1.4127,-4.47353 z m -13.96997,2.04056 q -2.51145,0 -5.33684,2.35448 -4.00263,3.33553 -7.14195,9.88886 -3.10008,6.55333 -3.10008,11.85093 0,2.66842 1.33421,4.23808 1.33421,1.53042 3.06084,1.53042 4.27732,0 9.30023,-6.31788 6.7103,-8.39768 6.7103,-17.22702 0,-3.33552 -1.29497,-4.8267 -1.29497,-1.49117 -3.53174,-1.49117 z"
           style="font-size:80.36656189px;fill:none;stroke:#000000;stroke-width:1.22789991;stroke-miterlimit:4;stroke-dasharray:none;stroke-opacity:1"
           id="path20"
           inkscape:connector-curvature="0" />
        <path
           d="m 198.71396,161.85032 q 1.64814,0 2.78614,1.138 1.138,1.138 1.138,2.78615 0,1.6089 -1.17724,2.78614 -1.138,1.13801 -2.7469,1.13801 -1.6089,0 -2.78615,-1.13801 -1.138,-1.17724 -1.138,-2.78614 0,-1.64815 1.138,-2.78615 1.138,-1.138 2.78615,-1.138 z m 0.51014,15.57887 -7.76982,27.50828 q -0.78483,2.78614 -0.78483,3.33553 0,0.62786 0.35318,1.02027 0.39241,0.39242 0.90255,0.39242 0.58862,0 1.41269,-0.62786 2.23677,-1.76587 4.51277,-5.02292 l 1.37346,0.90256 q -2.66843,4.08111 -6.27864,6.86726 -2.66842,2.0798 -5.1014,2.0798 -1.6089,0 -2.62917,-0.9418 -1.02028,-0.98104 -1.02028,-2.43297 0,-1.45193 0.98103,-4.8267 l 5.1014,-17.58019 q 1.25572,-4.31656 1.25572,-5.41532 0,-0.86332 -0.62786,-1.4127 -0.58862,-0.54938 -1.64814,-0.54938 -0.86331,0 -3.57098,0.43166 v -1.53042 z"
           style="font-size:80.36656189px;fill:none;stroke:#000000;stroke-width:1.22789991;stroke-miterlimit:4;stroke-dasharray:none;stroke-opacity:1"
           id="path22"
           inkscape:connector-curvature="0" />
        <path
           d="m 220.76767,177.42919 -5.21912,17.85487 q 7.33816,-10.94837 11.22307,-14.40162 3.92414,-3.45325 7.53436,-3.45325 1.96208,0 3.2178,1.29497 1.29497,1.29497 1.29497,3.37476 0,2.35449 -1.138,6.27864 l -4.78746,16.52067 q -0.82407,2.86463 -0.82407,3.49249 0,0.54938 0.31393,0.9418 0.31393,0.35317 0.6671,0.35317 0.4709,0 1.13801,-0.51014 2.0798,-1.64814 4.55201,-5.02291 l 1.21649,0.74559 q -3.64946,5.21912 -6.90651,7.45588 -2.276,1.53042 -4.08111,1.53042 -1.45194,0 -2.31525,-0.90256 -0.86331,-0.86331 -0.86331,-2.35449 0,-1.88359 1.33421,-6.47484 l 4.55201,-15.77508 q 0.86331,-2.94311 0.86331,-4.59125 0,-0.78483 -0.51013,-1.25573 -0.51014,-0.51014 -1.25573,-0.51014 -1.09876,0 -2.62918,0.9418 -2.90387,1.76586 -6.04319,5.84698 -3.13932,4.04187 -6.63181,10.35975 -1.84435,3.33553 -3.06084,7.29892 l -1.96207,6.47484 h -5.88622 l 7.14195,-24.56517 q 1.25572,-4.43429 1.25572,-5.33684 0,-0.86331 -0.70634,-1.49118 -0.66711,-0.6671 -1.68739,-0.6671 -0.4709,0 -1.64814,0.15696 l -1.49118,0.23545 -0.23544,-1.41269 z"
           style="font-size:80.36656189px;fill:none;stroke:#000000;stroke-width:1.22789991;stroke-miterlimit:4;stroke-dasharray:none;stroke-opacity:1"
           id="path24"
           inkscape:connector-curvature="0" />
        <path
           d="m 333.87006,185.94273 h 3.375 q 0,14.8125 -4.875,21.5625 -4.78125,6.75 -12,6.75 -5.90625,0 -11.34375,-4.40625 -5.4375,-4.5 -9.75,-23.90625 l -8.0625,-36.375 -27.9375,63.375 h -17.71875 l 40.125,-86.4375 q -3.1875,-16.78125 -7.6875,-24.84375 -4.5,-8.062498 -11.15625,-8.062498 -5.34375,0 -9.375,4.125 -3.9375,4.031248 -4.40625,12.562498 h -3.375 q 0.28125,-13.781248 5.53125,-22.031248 5.25,-8.34375 13.125,-8.34375 5.0625,0 9.5625,4.21875 4.59375,4.125 7.875,14.25 3.375,10.031248 10.40625,41.718748 l 6.65625,29.71875 q 4.03125,18.46875 8.4375,24.75 4.5,6.1875 10.6875,6.1875 10.5,0 11.90625,-14.8125 z"
           style="font-style:normal;font-variant:normal;font-weight:normal;font-stretch:normal;font-size:192px;font-family:'Times New Roman';-inkscape-font-specification:'Times New Roman, Italic';fill:none;stroke:#000000;stroke-width:1.22789991;stroke-miterlimit:4;stroke-dasharray:none;stroke-opacity:1"
           id="path26"
           inkscape:connector-curvature="0" />
        <path
           d="m 354.18641,161.85032 q 1.64814,0 2.78614,1.138 1.138,1.138 1.138,2.78615 0,1.6089 -1.17724,2.78614 -1.138,1.13801 -2.7469,1.13801 -1.6089,0 -2.78615,-1.13801 -1.138,-1.17724 -1.138,-2.78614 0,-1.64815 1.138,-2.78615 1.138,-1.138 2.78615,-1.138 z m 0.51014,15.57887 -7.76982,27.50828 q -0.78483,2.78614 -0.78483,3.33553 0,0.62786 0.35318,1.02027 0.39241,0.39242 0.90255,0.39242 0.58862,0 1.41269,-0.62786 2.23677,-1.76587 4.51277,-5.02292 l 1.37346,0.90256 q -2.66843,4.08111 -6.27864,6.86726 -2.66842,2.0798 -5.1014,2.0798 -1.6089,0 -2.62917,-0.9418 -1.02028,-0.98104 -1.02028,-2.43297 0,-1.45193 0.98103,-4.8267 l 5.1014,-17.58019 q 1.25572,-4.31656 1.25572,-5.41532 0,-0.86332 -0.62786,-1.4127 -0.58862,-0.54938 -1.64814,-0.54938 -0.86331,0 -3.57098,0.43166 v -1.53042 z"
           style="font-size:80.36656189px;fill:none;stroke:#000000;stroke-width:1.22789991;stroke-miterlimit:4;stroke-dasharray:none;stroke-opacity:1"
           id="path28"
           inkscape:connector-curvature="0" />
        <path
           d="m 387.65938,177.42919 -2.39373,12.04713 h -1.45193 q -0.19621,-5.25836 -2.23677,-7.65209 -2.04055,-2.39373 -5.06215,-2.39373 -2.43297,0 -3.88491,1.33421 -1.41269,1.33421 -1.41269,3.21781 0,1.29496 0.54938,2.47221 0.58862,1.17724 2.51146,3.29628 5.10139,5.5723 6.59257,8.39768 1.49117,2.82539 1.49117,5.33684 0,4.08112 -3.41401,7.25968 -3.37476,3.13932 -8.55464,3.13932 -2.82539,0 -6.51409,-1.33421 -1.29497,-0.4709 -2.00131,-0.4709 -1.76587,0 -2.66842,1.80511 h -1.45194 l 2.39373,-12.71424 h 1.45194 q 0.23545,5.9647 2.47221,8.43692 2.23677,2.47221 6.12167,2.47221 2.98236,0 4.70898,-1.64814 1.76587,-1.68739 1.76587,-4.12036 0,-1.56966 -0.62787,-2.90387 -1.09876,-2.35449 -4.63049,-6.51409 -3.49249,-4.15959 -4.51277,-6.23939 -0.98104,-2.0798 -0.98104,-4.1596 0,-3.80642 2.7469,-6.4356 2.78615,-2.62918 7.14196,-2.62918 1.25572,0 2.276,0.19621 0.54938,0.11772 2.5507,0.90255 2.04056,0.74559 2.70766,0.74559 1.68738,0 2.82539,-1.84435 z"
           style="font-size:80.36656189px;fill:none;stroke:#000000;stroke-width:1.22789991;stroke-miterlimit:4;stroke-dasharray:none;stroke-opacity:1"
           id="path30"
           inkscape:connector-curvature="0" />
        <path
           d="m 407.51559,177.42919 -2.70766,9.02554 q 4.27732,-5.02291 7.61285,-7.02423 3.37476,-2.00131 6.86726,-2.00131 3.49249,0 5.9647,2.78614 2.47221,2.74691 2.47221,7.1812 0,8.63312 -7.02422,17.58018 -7.02423,8.90782 -16.3637,8.90782 -1.96207,0 -3.49249,-0.43166 -1.49118,-0.43165 -3.37477,-1.53042 l -2.86463,10.12431 q -0.86331,2.98235 -0.86331,3.8849 0,0.86332 0.43165,1.45194 0.4709,0.62786 1.49118,0.94179 1.02028,0.35318 4.04187,0.35318 l -0.35317,1.45193 h -18.48274 l 0.39242,-1.45193 q 3.64945,-0.15697 4.94442,-1.25573 1.25573,-1.09876 2.66842,-6.08243 l 9.9281,-34.37554 q 0.90255,-3.25704 0.90255,-4.04187 0,-1.05952 -0.62786,-1.64815 -0.58862,-0.58862 -1.84435,-0.58862 -1.138,0 -3.17856,0.27469 v -1.53042 z m -9.14327,31.39319 q 2.43298,2.90387 6.55333,2.90387 2.04056,0 4.1596,-1.13801 2.11904,-1.138 4.12035,-3.37476 2.04056,-2.23677 3.64946,-5.14064 1.6089,-2.94311 2.86463,-6.9065 1.29497,-3.96339 1.29497,-7.8483 0,-3.13932 -1.45193,-4.78746 -1.4127,-1.68738 -3.33553,-1.68738 -4.23808,0 -8.39768,4.86594 -4.12035,4.86595 -6.04319,11.38003 z"
           style="font-size:80.36656189px;fill:none;stroke:#000000;stroke-width:1.22789991;stroke-miterlimit:4;stroke-dasharray:none;stroke-opacity:1"
           id="path32"
           inkscape:connector-curvature="0" />
      </g>
      <g
         style="display:inline"
         sketchjs:tool="clipart"
         transform="matrix(0.15617926,0,0,0.04167533,45.04542,129.07126)"
         id="g4522">
        <path
           inkscape:connector-curvature="0"
           d="M 455.53,5 C 401.04,5.37 347.29,30.142 328.62,75.094 237.37,-46.086 36.67,67.639 94.91,188.914 c -138.11,-25.64 -106.39,197.57 22.47,175.81 55.32,57.59 140.17,67.01 232,26.28 h 0.06 c 111.01,40.42 207.56,10.29 251.09,-20.56 261.28,68.17 167.31,-349.25 -4.15,-240.35 C 595.04,43.367 524.69,4.534 455.53,5.004 Z"
           sketchjs:uid="1"
           style="display:inline;fill:#f2f2f2"
           id="path4518" />
        <path
           inkscape:connector-curvature="0"
           d="m 328.62,75.09 c 44.244,-106.55 285.63,-99.7 266.72,76.688 m 1.038,-21.692 c 171.46,-108.91 265.44,308.51 4.154,240.33 m 16.534,-14.423 c -31.756,36.108 -153.17,87.922 -292.21,24.984 m 24.506,10.003 c -91.82,40.73 -176.65,31.33 -231.98,-26.26 m 23.893,-6.545 c -148.4,55.62 -192.67,-196.43 -46.38,-169.27 m 12.562,20.78 c -99.64,-135.93 151.77,-278.65 236.96,-108.95"
           sketchjs:uid="2"
           style="display:inline;fill:none;stroke:#515151;stroke-width:10;stroke-linecap:round;stroke-linejoin:round"
           id="path4520" />
      </g>
    </g>
  </g>
</svg>
