<?xml version="1.0" encoding="UTF-8" standalone="no"?>
<svg
   xmlns:sketchjs="https://sketch.io/dtd/"
   xmlns:dc="http://purl.org/dc/elements/1.1/"
   xmlns:cc="http://creativecommons.org/ns#"
   xmlns:rdf="http://www.w3.org/1999/02/22-rdf-syntax-ns#"
   xmlns:svg="http://www.w3.org/2000/svg"
   xmlns="http://www.w3.org/2000/svg"
   xmlns:sodipodi="http://sodipodi.sourceforge.net/DTD/sodipodi-0.dtd"
   xmlns:inkscape="http://www.inkscape.org/namespaces/inkscape"
   width="148.96992mm"
   height="66.479271mm"
   viewBox="0 0 148.96992 66.479271"
   version="1.1"
   id="svg8"
   inkscape:version="1.0.2 (e86c870879, 2021-01-15, custom)"
   sodipodi:docname="RainLisp-Colored.svg"
   inkscape:export-filename="C:\Users\gc3ad\Desktop\RainLisp-Colored.png"
   inkscape:export-xdpi="96"
   inkscape:export-ydpi="96">
  <defs
     id="defs2" />
  <sodipodi:namedview
     id="base"
     pagecolor="#ffffff"
     bordercolor="#666666"
     borderopacity="1.0"
     inkscape:pageopacity="0.0"
     inkscape:pageshadow="2"
     inkscape:zoom="1.3556054"
     inkscape:cx="264.28037"
     inkscape:cy="131.1949"
     inkscape:document-units="mm"
     inkscape:current-layer="g5009"
     showgrid="false"
     inkscape:window-width="1920"
     inkscape:window-height="1017"
     inkscape:window-x="-8"
     inkscape:window-y="-8"
     inkscape:window-maximized="1"
     inkscape:document-rotation="0" />
  <metadata
     id="metadata5">
    <rdf:RDF>
      <cc:Work
         rdf:about="">
        <dc:format>image/svg+xml</dc:format>
        <dc:type
           rdf:resource="http://purl.org/dc/dcmitype/StillImage" />
        <dc:title />
      </cc:Work>
    </rdf:RDF>
  </metadata>
  <g
     inkscape:label="Layer 1"
     inkscape:groupmode="layer"
     id="layer1"
     style="display:inline"
     transform="translate(-30.515039,-115.26036)">
    <g
       id="g5009"
       style="display:inline">
      <g
         id="g926">
        <path
           d="m 138.01683,162.07343 h 1.4815 q 0,6.50211 -2.13994,9.4651 -2.09878,2.96298 -5.26753,2.96298 -2.59261,0 -4.97946,-1.93417 -2.38685,-1.97532 -4.27987,-10.49391 l -3.53912,-15.9672 -12.26347,27.81915 H 99.251101 L 116.86441,135.9827 q -1.39919,-7.36632 -3.37452,-10.90544 -1.97532,-3.53912 -4.89715,-3.53912 -2.3457,0 -4.11526,1.81071 -1.72841,1.76956 -1.93417,5.51445 h -1.4815 q 0.12346,-6.04943 2.42801,-9.67086 2.30454,-3.66258 5.76136,-3.66258 2.22224,0 4.19756,1.85187 2.01648,1.81071 3.45682,6.25519 1.48149,4.40333 4.56794,18.3129 l 2.92183,13.04537 q 1.76956,8.10706 3.70373,10.86428 1.97533,2.71607 4.6914,2.71607 4.60908,0 5.22637,-6.50211 z"
           style="font-style:normal;font-variant:normal;font-weight:normal;font-stretch:normal;font-size:192px;line-height:1.25;font-family:'Times New Roman';-inkscape-font-specification:'Times New Roman, Italic';letter-spacing:0px;word-spacing:0px;display:inline;fill:#008080;fill-opacity:1;stroke:#515151;stroke-width:0.539;stroke-miterlimit:4;stroke-dasharray:none;stroke-opacity:1"
           id="path26"
           inkscape:connector-curvature="0" />
        <g
           id="g944"
           style="opacity:0.999;fill:#f2f2f2;fill-opacity:1;stroke:#515151;stroke-opacity:1">
          <path
             d="m 46.253018,173.92538 -3.737927,-11.35159 q -1.309139,0.0172 -2.687178,-0.25838 l -2.015379,7.06244 q -0.396184,1.37804 -0.396184,2.32544 0,0.72347 0.499537,1.13688 0.378959,0.31006 2.067058,0.44787 l -0.155032,0.63734 H 30.78454 l 0.18948,-0.63734 q 1.274685,-0.0517 1.722547,-0.25839 0.706245,-0.29283 1.033529,-0.79237 0.551215,-0.80959 1.154107,-2.85943 l 4.082438,-14.10766 q 0.413413,-1.41249 0.413413,-2.18764 0,-0.79237 -0.654569,-1.34359 -0.637345,-0.55121 -1.843127,-0.53399 l 0.206707,-0.63734 h 7.613658 q 3.824056,0 5.512154,1.44694 1.688099,1.44694 1.688099,3.80683 0,2.25654 -1.739773,4.13412 -1.722548,1.86035 -4.737007,2.35989 l 2.27376,6.83851 q 0.826823,2.51492 1.653649,3.27284 0.826823,0.75792 2.669949,0.86128 l -0.189482,0.63734 z m -6.13227,-12.59182 q 1.102428,0.15502 1.963705,0.15502 2.962779,0 4.685328,-1.63642 1.722548,-1.65364 1.722548,-4.09966 0,-1.91203 -1.085203,-2.92833 -1.067979,-1.01631 -3.221166,-1.01631 -0.551216,0 -1.309135,0.13781 z"
             style="font-style:normal;font-weight:normal;font-size:80.3666px;line-height:1.25;font-family:sans-serif;letter-spacing:0px;word-spacing:0px;display:inline;fill:#f2f2f2;fill-opacity:1;stroke:#515151;stroke-width:0.539;stroke-miterlimit:4;stroke-dasharray:none;stroke-opacity:1"
             id="path18"
             inkscape:connector-curvature="0" />
          <path
             d="m 69.714117,158.33632 -3.358968,11.67887 -0.37896,1.56752 q -0.05167,0.22393 -0.05167,0.37896 0,0.27561 0.172252,0.48232 0.137803,0.15503 0.34451,0.15503 0.223932,0 0.585666,-0.27561 0.671795,-0.49954 1.791452,-2.06706 l 0.585666,0.41341 q -1.188561,1.79145 -2.446022,2.73885 -1.257456,0.93018 -2.325439,0.93018 -0.740694,0 -1.119653,-0.37896 -0.361734,-0.36174 -0.361734,-1.06798 0,-0.84405 0.378959,-2.22209 l 0.361734,-1.29191 q -2.256535,2.94556 -4.15134,4.11689 -1.360814,0.84405 -2.669949,0.84405 -1.257461,0 -2.170412,-1.03353 -0.912946,-1.05075 -0.912946,-2.87665 0,-2.73886 1.63642,-5.77054 1.653644,-3.04891 4.18579,-4.87481 1.98093,-1.44694 3.737928,-1.44694 1.050754,0 1.739773,0.55122 0.706244,0.55121 1.067979,1.8259 l 0.62012,-1.96371 z m -6.132271,0.89573 q -1.102428,0 -2.342664,1.03352 -1.756998,1.46417 -3.135036,4.34083 -1.360814,2.87665 -1.360814,5.20209 0,1.17133 0.585666,1.86035 0.585666,0.6718 1.343589,0.6718 1.877576,0 4.082437,-2.77331 2.945559,-3.68625 2.945559,-7.56198 0,-1.46417 -0.568441,-2.11874 -0.568441,-0.65456 -1.550296,-0.65456 z"
             style="font-style:normal;font-weight:normal;font-size:80.3666px;line-height:1.25;font-family:sans-serif;letter-spacing:0px;word-spacing:0px;fill:#f2f2f2;fill-opacity:1;stroke:#515151;stroke-width:0.539;stroke-miterlimit:4;stroke-dasharray:none;stroke-opacity:1"
             id="path20"
             inkscape:connector-curvature="0" />
          <path
             d="m 78.688593,151.49781 q 0.723469,0 1.223006,0.49954 0.499538,0.49953 0.499538,1.22301 0,0.70624 -0.516763,1.223 -0.499537,0.49954 -1.205781,0.49954 -0.706244,0 -1.223011,-0.49954 -0.499537,-0.51676 -0.499537,-1.223 0,-0.72348 0.499537,-1.22301 0.499537,-0.49954 1.223011,-0.49954 z m 0.223931,6.83851 -3.410647,12.07506 q -0.344509,1.22301 -0.344509,1.46417 0,0.2756 0.155032,0.44786 0.172253,0.17225 0.396184,0.17225 0.258381,0 0.620116,-0.2756 0.981854,-0.77515 1.980929,-2.20487 l 0.602895,0.39619 q -1.171336,1.79145 -2.756077,3.01446 -1.171332,0.91295 -2.239315,0.91295 -0.706244,0 -1.154103,-0.41341 -0.447863,-0.43064 -0.447863,-1.06798 0,-0.63734 0.430634,-2.11873 l 2.239315,-7.71702 q 0.551212,-1.8948 0.551212,-2.37711 0,-0.37897 -0.275606,-0.62012 -0.258381,-0.24116 -0.723469,-0.24116 -0.378959,0 -1.567521,0.18948 v -0.67179 z"
             style="font-style:normal;font-weight:normal;font-size:80.3666px;line-height:1.25;font-family:sans-serif;letter-spacing:0px;word-spacing:0px;display:inline;fill:#f2f2f2;fill-opacity:1;stroke:#515151;stroke-width:0.539;stroke-miterlimit:4;stroke-dasharray:none;stroke-opacity:1"
             id="path22"
             inkscape:connector-curvature="0" />
          <path
             d="m 88.369309,158.33632 -2.29099,7.83759 q 3.221165,-4.8059 4.926489,-6.32175 1.722544,-1.51584 3.307289,-1.51584 0.861277,0 1.412489,0.56844 0.568441,0.56844 0.568441,1.48139 0,1.03353 -0.499538,2.75608 l -2.101507,7.25193 q -0.361735,1.25746 -0.361735,1.53306 0,0.24116 0.137803,0.41342 0.137803,0.15502 0.292831,0.15502 0.206707,0 0.499542,-0.22393 0.912951,-0.72347 1.998154,-2.20486 l 0.533992,0.32729 q -1.601971,2.29099 -3.031688,3.27284 -0.999075,0.67179 -1.791448,0.67179 -0.637345,0 -1.016304,-0.39619 -0.378959,-0.37896 -0.378959,-1.03353 0,-0.82682 0.585666,-2.8422 l 1.998154,-6.92464 q 0.378959,-1.29191 0.378959,-2.01538 0,-0.34451 -0.223927,-0.55122 -0.223931,-0.22393 -0.551216,-0.22393 -0.482313,0 -1.154107,0.41341 -1.274686,0.77515 -2.652724,2.5666 -1.378039,1.77422 -2.911105,4.54753 -0.809598,1.46416 -1.343589,3.20394 l -0.861272,2.8422 h -2.583821 l 3.135037,-10.78315 q 0.551212,-1.94648 0.551212,-2.34267 0,-0.37895 -0.310056,-0.65457 -0.292835,-0.29283 -0.740698,-0.29283 -0.206707,0 -0.723469,0.0689 l -0.65457,0.10336 -0.103348,-0.62012 z"
             style="font-style:normal;font-weight:normal;font-size:80.3666px;line-height:1.25;font-family:sans-serif;letter-spacing:0px;word-spacing:0px;display:inline;fill:#f2f2f2;fill-opacity:1;stroke:#515151;stroke-width:0.539;stroke-miterlimit:4;stroke-dasharray:none;stroke-opacity:1"
             id="path24"
             inkscape:connector-curvature="0" />
          <path
             d="m 146.93492,151.49781 q 0.72347,0 1.223,0.49954 0.49954,0.49953 0.49954,1.22301 0,0.70624 -0.51676,1.223 -0.49954,0.49954 -1.20578,0.49954 -0.70625,0 -1.22301,-0.49954 -0.49954,-0.51676 -0.49954,-1.223 0,-0.72348 0.49954,-1.22301 0.49953,-0.49954 1.22301,-0.49954 z m 0.22393,6.83851 -3.41065,12.07506 q -0.34451,1.22301 -0.34451,1.46417 0,0.2756 0.15503,0.44786 0.17226,0.17225 0.39619,0.17225 0.25838,0 0.62011,-0.2756 0.98186,-0.77515 1.98093,-2.20487 l 0.6029,0.39619 q -1.17134,1.79145 -2.75608,3.01446 -1.17133,0.91295 -2.23931,0.91295 -0.70625,0 -1.15411,-0.41341 -0.44786,-0.43064 -0.44786,-1.06798 0,-0.63734 0.43063,-2.11873 l 2.23932,-7.71702 q 0.55121,-1.8948 0.55121,-2.37711 0,-0.37897 -0.27561,-0.62012 -0.25838,-0.24116 -0.72346,-0.24116 -0.37896,0 -1.56753,0.18948 v -0.67179 z"
             style="font-style:normal;font-weight:normal;font-size:80.3666px;line-height:1.25;font-family:sans-serif;letter-spacing:0px;word-spacing:0px;fill:#f2f2f2;fill-opacity:1;stroke:#515151;stroke-width:0.539;stroke-miterlimit:4;stroke-dasharray:none;stroke-opacity:1"
             id="path28"
             inkscape:connector-curvature="0" />
          <path
             d="m 161.62824,158.33632 -1.05075,5.28822 h -0.63734 q -0.0861,-2.30821 -0.98186,-3.35897 -0.89572,-1.05075 -2.22208,-1.05075 -1.06798,0 -1.70533,0.58567 -0.62011,0.58566 -0.62011,1.41249 0,0.56843 0.24115,1.0852 0.25838,0.51676 1.10244,1.44694 2.23931,2.44602 2.89388,3.68625 0.65456,1.24024 0.65456,2.34267 0,1.79145 -1.49862,3.18671 -1.48138,1.37804 -3.75515,1.37804 -1.24023,0 -2.85943,-0.58567 -0.56844,-0.2067 -0.8785,-0.2067 -0.77514,0 -1.17133,0.79237 h -0.63734 l 1.05075,-5.58105 h 0.63735 q 0.10335,2.61827 1.0852,3.70347 0.98185,1.08521 2.68717,1.08521 1.30914,0 2.06706,-0.72347 0.77515,-0.7407 0.77515,-1.80868 0,-0.68902 -0.27561,-1.27468 -0.48231,-1.03353 -2.0326,-2.85943 -1.53307,-1.8259 -1.98093,-2.73885 -0.43064,-0.91295 -0.43064,-1.8259 0,-1.67087 1.20578,-2.82498 1.22301,-1.15411 3.13504,-1.15411 0.55121,0 0.99908,0.0861 0.24115,0.0517 1.11965,0.39619 0.89573,0.32728 1.18856,0.32728 0.74069,0 1.24024,-0.8096 z"
             style="font-style:normal;font-weight:normal;font-size:80.3666px;line-height:1.25;font-family:sans-serif;letter-spacing:0px;word-spacing:0px;fill:#f2f2f2;fill-opacity:1;stroke:#515151;stroke-width:0.539;stroke-miterlimit:4;stroke-dasharray:none;stroke-opacity:1"
             id="path30"
             inkscape:connector-curvature="0" />
          <path
             d="m 170.34434,158.33632 -1.18856,3.96186 q 1.87758,-2.20486 3.34175,-3.08336 1.48138,-0.8785 3.01446,-0.8785 1.53306,0 2.61827,1.22301 1.0852,1.20578 1.0852,3.15226 0,3.78961 -3.08336,7.71702 -3.08336,3.91018 -7.18302,3.91018 -0.86128,0 -1.53307,-0.18948 -0.65457,-0.18948 -1.48139,-0.6718 l -1.25746,4.44418 q -0.37896,1.30914 -0.37896,1.70532 0,0.37896 0.18948,0.63734 0.2067,0.27561 0.65457,0.41341 0.44786,0.15504 1.77422,0.15504 l -0.15503,0.63734 h -8.1132 l 0.17226,-0.63734 q 1.60196,-0.0689 2.1704,-0.55122 0.55122,-0.48231 1.17134,-2.66995 l 4.35804,-15.08952 q 0.39619,-1.42971 0.39619,-1.77422 0,-0.46509 -0.27561,-0.72347 -0.25838,-0.25838 -0.8096,-0.25838 -0.49953,0 -1.39526,0.12057 v -0.67179 z m -4.01354,13.78038 q 1.06799,1.27469 2.87666,1.27469 0.89572,0 1.8259,-0.49954 0.93018,-0.49954 1.80867,-1.48139 0.89573,-0.98185 1.60197,-2.25654 0.70625,-1.29191 1.25746,-3.03168 0.56844,-1.73978 0.56844,-3.4451 0,-1.37804 -0.63734,-2.10151 -0.62012,-0.74069 -1.46416,-0.74069 -1.86036,0 -3.68626,2.13596 -1.80867,2.13596 -2.65272,4.99538 z"
             style="font-style:normal;font-weight:normal;font-size:80.3666px;line-height:1.25;font-family:sans-serif;letter-spacing:0px;word-spacing:0px;fill:#f2f2f2;fill-opacity:1;stroke:#515151;stroke-width:0.539;stroke-miterlimit:4;stroke-dasharray:none;stroke-opacity:1"
             id="path32"
             inkscape:connector-curvature="0" />
        </g>
        <g
           style="display:inline"
           sketchjs:tool="clipart"
           transform="matrix(0.15617926,0,0,0.04167533,45.04542,129.07126)"
           id="g4522">
          <path
             inkscape:connector-curvature="0"
             d="M 455.53,5 C 401.04,5.37 347.29,30.142 328.62,75.094 237.37,-46.086 36.67,67.639 94.91,188.914 c -138.11,-25.64 -106.39,197.57 22.47,175.81 55.32,57.59 140.17,67.01 232,26.28 h 0.06 c 111.01,40.42 207.56,10.29 251.09,-20.56 261.28,68.17 167.31,-349.25 -4.15,-240.35 C 595.04,43.367 524.69,4.534 455.53,5.004 Z"
             sketchjs:uid="1"
             style="display:inline;fill:#f2f2f2"
             id="path4518" />
          <path
             inkscape:connector-curvature="0"
             d="m 328.62,75.09 c 44.244,-106.55 285.63,-99.7 266.72,76.688 m 1.038,-21.692 c 171.46,-108.91 265.44,308.51 4.154,240.33 m 16.534,-14.423 c -31.756,36.108 -153.17,87.922 -292.21,24.984 m 24.506,10.003 c -91.82,40.73 -176.65,31.33 -231.98,-26.26 m 23.893,-6.545 c -148.4,55.62 -192.67,-196.43 -46.38,-169.27 m 12.562,20.78 c -99.64,-135.93 151.77,-278.65 236.96,-108.95"
             sketchjs:uid="2"
             style="display:inline;fill:none;stroke:#515151;stroke-width:10;stroke-linecap:round;stroke-linejoin:round"
             id="path4520" />
        </g>
      </g>
    </g>
  </g>
</svg>
